<svg preserveAspectRatio="none" overflow="visible" style="display: block;" width="34.47" height="30" viewBox="0 0 34.47 30" fill="none" xmlns="http://www.w3.org/2000/svg">
<path id="Vector" d="M8.6175 13.7502C9.37933 13.7502 10.11 13.4868 10.6487 13.018C11.1874 12.5491 11.49 11.9133 11.49 11.2502C11.49 10.5871 11.1874 9.95125 10.6487 9.4824C10.11 9.01355 9.37933 8.75016 8.6175 8.75016C7.85567 8.75016 7.12503 9.01355 6.58634 9.4824C6.04764 9.95125 5.745 10.5871 5.745 11.2502C5.745 11.9133 6.04764 12.5491 6.58634 13.018C7.12503 13.4868 7.85567 13.7502 8.6175 13.7502ZM20.1075 11.2502C20.1075 11.9133 19.8049 12.5491 19.2662 13.018C18.7275 13.4868 17.9968 13.7502 17.235 13.7502C16.4732 13.7502 15.7425 13.4868 15.2038 13.018C14.6651 12.5491 14.3625 11.9133 14.3625 11.2502C14.3625 10.5871 14.6651 9.95125 15.2038 9.4824C15.7425 9.01355 16.4732 8.75016 17.235 8.75016C17.9968 8.75016 18.7275 9.01355 19.2662 9.4824C19.8049 9.95125 20.1075 10.5871 20.1075 11.2502ZM25.8525 13.7502C26.6143 13.7502 27.345 13.4868 27.8837 13.018C28.4224 12.5491 28.725 11.9133 28.725 11.2502C28.725 10.5871 28.4224 9.95125 27.8837 9.4824C27.345 9.01355 26.6143 8.75016 25.8525 8.75016C25.0907 8.75016 24.36 9.01355 23.8213 9.4824C23.2826 9.95125 22.98 10.5871 22.98 11.2502C22.98 11.9133 23.2826 12.5491 23.8213 13.018C24.36 13.4868 25.0907 13.7502 25.8525 13.7502ZM0 20.0004C0 20.6634 0.302638 21.2993 0.841336 21.7682C1.38003 22.237 2.11067 22.5004 2.8725 22.5004H5.745V27.5005C5.74512 27.9949 5.91366 28.4781 6.2293 28.8892C6.54494 29.3002 6.99352 29.6205 7.51832 29.8097C8.04313 29.9989 8.6206 30.0484 9.17773 29.952C9.73486 29.8556 10.2466 29.6175 10.6484 29.268L18.4242 22.5004H31.5975C32.3593 22.5004 33.09 22.237 33.6287 21.7682C34.1674 21.2993 34.47 20.6634 34.47 20.0004V2.50004C34.47 1.83699 34.1674 1.2011 33.6287 0.732246C33.09 0.263397 32.3593 0 31.5975 0L2.8725 0C2.11067 0 1.38003 0.263397 0.841336 0.732246C0.302638 1.2011 0 1.83699 0 2.50004L0 20.0004ZM8.6175 27.5005V20.0004H2.8725V2.50004H31.5975V20.0004H17.235L8.6175 27.5005Z" fill="#B7C3DD"/>
</svg>
